# xmcd
#
# Track frame offsets: 
#        150
#        20150
#        45127
#        65467
#        85520
#        106072
#        127665
#        152030
#        167085
#        188162
#
# Disc length: 2819 seconds
#
# Revision: 6
# Processed by: cddbd v1.5.2PL0 Copyright (c) Steve Scherf et al.
# Submitted via: ExactAudioCopy v0.95b4
#
DISCID=6b0b010a
DTITLE=Patricia Barber - Split
DYEAR=1989
DGENRE=Jazz
TTITLE0=Early Autumn
TTITLE1=Greys
TTITLE2=Alone Together
TTITLE3=Spy Sly
TTITLE4=Easy to Love
TTITLE5=Too Late Now
TTITLE6=Winter Illusion
TTITLE7=Retrograde
TTITLE8=Two for the Road
TTITLE9=Then I'll Be Tired of You
EXTD=YEAR: 1997
EXTT0=
EXTT1=
EXTT2=
EXTT3=
EXTT4=
EXTT5=
EXTT6=
EXTT7=
EXTT8=
EXTT9=
PLAYORDER=
